<?xml version="1.0" encoding="utf-8"?>
<!-- Generator: Adobe Illustrator 19.0.0, SVG Export Plug-In . SVG Version: 6.00 Build 0)  -->
<svg version="1.1" id="Layer_1" xmlns="http://www.w3.org/2000/svg" xmlns:xlink="http://www.w3.org/1999/xlink" x="0px" y="0px"
	 viewBox="0 0 512 512" style="enable-background:new 0 0 512 512;" xml:space="preserve">
<g id="XMLID_1_">
	<path id="XMLID_3_" d="M328.2,407.9h112c20.5,0,38.7-7.9,51.3-21.3c12.6-13.4,20.5-31.6,20.5-51.3s-7.9-37.9-20.5-51.3
		c-12.6-12.6-30.8-20.5-50.5-20.5v7.9h7.9c0-46.5-19.7-89.1-52.1-119.1c-32.3-30.8-75.7-48.9-123.9-48.9
		c-42.6,0-82.8,14.2-114.4,37.9s-55.2,57.6-62.3,97l7.9,1.6v-7.9c0,0-6.3,0-13.4,0c-25.2,0-47.3,9.5-63.9,26
		C10.3,273.8,0,295.8,0,320.3s9.5,46.5,25.2,62.3s37.9,26,63.1,26h239.8v-15.8H87.6c-20.5,0-38.7-7.9-51.3-21.3
		s-20.5-30.8-20.5-51.3c0-19.7,8.7-37.9,22.1-51.3c13.4-13.4,32.3-21.3,52.9-21.3c6.3,0,13.4,0,13.4,0h6.3l1.6-6.3
		c7.1-34.7,27.6-65.5,56-86.8c29.2-22.1,65.5-34.7,104.1-34.7c43.4,0,83.6,17.4,112.8,45c29.2,27.6,47.3,65.5,47.3,107.3v7.9h7.9
		c16.6,0,30,6.3,40.2,16.6c10.3,10.3,15.8,24.5,15.8,39.4c0,15.8-6.3,29.2-15.8,39.4c-10.3,10.3-23.7,16.6-40.2,16.6h-112V407.9
		L328.2,407.9z"/>
	<path id="XMLID_4_" d="M232.7,199.6v7.9c11,0,21.3,4.7,28.4,11.8c7.1,7.1,11.8,17.4,11.8,28.4c0,11-4.7,21.3-11.8,28.4
		c-7.1,7.1-17.4,11.8-28.4,11.8c-11,0-21.3-4.7-28.4-11.8c-7.1-7.1-11.8-17.4-11.8-28.4c0-11,4.7-21.3,11.8-28.4
		c7.1-7.1,17.4-11.8,28.4-11.8V199.6v-7.9c-30.8,0-56,25.2-56,56s25.2,56,56,56s56-25.2,56-56s-25.2-56-56-56V199.6z"/>
	<polyline id="XMLID_5_" points="258.8,285.6 322.7,349.5 334.5,338.4 269.8,273.8 	"/>
</g>
</svg>
